<?xml version="1.0" encoding="UTF-8" standalone="no"?>
<!-- Created with Inkscape (http://www.inkscape.org/) -->

<svg
   xmlns:dc="http://purl.org/dc/elements/1.1/"
   xmlns:cc="http://creativecommons.org/ns#"
   xmlns:rdf="http://www.w3.org/1999/02/22-rdf-syntax-ns#"
   xmlns:svg="http://www.w3.org/2000/svg"
   xmlns="http://www.w3.org/2000/svg"
   xmlns:sodipodi="http://sodipodi.sourceforge.net/DTD/sodipodi-0.dtd"
   xmlns:inkscape="http://www.inkscape.org/namespaces/inkscape"
   width="50"
   height="32"
   id="svg4342"
   version="1.1"
   inkscape:version="0.47pre4 r22446"
   sodipodi:docname="relationship.svg">
  <defs
     id="defs4344">
    <inkscape:path-effect
       effect="spiro"
       id="path-effect4914"
       is_visible="true" />
    <inkscape:path-effect
       effect="spiro"
       id="path-effect4910"
       is_visible="true" />
    <inkscape:path-effect
       effect="spiro"
       id="path-effect4906"
       is_visible="true" />
    <inkscape:path-effect
       effect="spiro"
       id="path-effect4902"
       is_visible="true" />
    <inkscape:path-effect
       effect="spiro"
       id="path-effect4898"
       is_visible="true" />
    <inkscape:path-effect
       effect="spiro"
       id="path-effect4894"
       is_visible="true" />
    <inkscape:path-effect
       effect="skeletal"
       id="path-effect4888"
       is_visible="true"
       pattern="M 0,5 C 0,2.24 2.24,0 5,0 7.76,0 10,2.24 10,5 10,7.76 7.76,10 5,10 2.24,10 0,7.76 0,5 z"
       copytype="single_stretched"
       prop_scale="1"
       scale_y_rel="false"
       spacing="0"
       normal_offset="0"
       tang_offset="0"
       prop_units="false"
       vertical_pattern="false"
       fuse_tolerance="0" />
    <inkscape:path-effect
       effect="skeletal"
       id="path-effect4884"
       is_visible="true"
       pattern="M 0,5 C 0,2.24 2.24,0 5,0 7.76,0 10,2.24 10,5 10,7.76 7.76,10 5,10 2.24,10 0,7.76 0,5 z"
       copytype="single_stretched"
       prop_scale="1"
       scale_y_rel="false"
       spacing="0"
       normal_offset="0"
       tang_offset="0"
       prop_units="false"
       vertical_pattern="false"
       fuse_tolerance="0" />
    <inkscape:path-effect
       effect="skeletal"
       id="path-effect4880"
       is_visible="true"
       pattern="M 0,5 C 0,2.24 2.24,0 5,0 7.76,0 10,2.24 10,5 10,7.76 7.76,10 5,10 2.24,10 0,7.76 0,5 z"
       copytype="single_stretched"
       prop_scale="1"
       scale_y_rel="false"
       spacing="0"
       normal_offset="0"
       tang_offset="0"
       prop_units="false"
       vertical_pattern="false"
       fuse_tolerance="0" />
    <inkscape:path-effect
       effect="skeletal"
       id="path-effect4876"
       is_visible="true"
       pattern="M 0,5 C 0,2.24 2.24,0 5,0 7.76,0 10,2.24 10,5 10,7.76 7.76,10 5,10 2.24,10 0,7.76 0,5 z"
       copytype="single_stretched"
       prop_scale="1"
       scale_y_rel="false"
       spacing="0"
       normal_offset="0"
       tang_offset="0"
       prop_units="false"
       vertical_pattern="false"
       fuse_tolerance="0" />
    <inkscape:path-effect
       effect="spiro"
       id="path-effect4874"
       is_visible="true" />
    <inkscape:path-effect
       effect="skeletal"
       id="path-effect4870"
       is_visible="true"
       pattern="M 0,5 C 0,2.24 2.24,0 5,0 7.76,0 10,2.24 10,5 10,7.76 7.76,10 5,10 2.24,10 0,7.76 0,5 z"
       copytype="single_stretched"
       prop_scale="1"
       scale_y_rel="false"
       spacing="0"
       normal_offset="0"
       tang_offset="0"
       prop_units="false"
       vertical_pattern="false"
       fuse_tolerance="0" />
    <inkscape:perspective
       sodipodi:type="inkscape:persp3d"
       inkscape:vp_x="0 : 16 : 1"
       inkscape:vp_y="0 : 1000 : 0"
       inkscape:vp_z="32 : 16 : 1"
       inkscape:persp3d-origin="16 : 10.666667 : 1"
       id="perspective4350" />
    <inkscape:perspective
       id="perspective3623"
       inkscape:persp3d-origin="0.5 : 0.33333333 : 1"
       inkscape:vp_z="1 : 0.5 : 1"
       inkscape:vp_y="0 : 1000 : 0"
       inkscape:vp_x="0 : 0.5 : 1"
       sodipodi:type="inkscape:persp3d" />
    <inkscape:perspective
       id="perspective3672"
       inkscape:persp3d-origin="0.5 : 0.33333333 : 1"
       inkscape:vp_z="1 : 0.5 : 1"
       inkscape:vp_y="0 : 1000 : 0"
       inkscape:vp_x="0 : 0.5 : 1"
       sodipodi:type="inkscape:persp3d" />
    <inkscape:perspective
       id="perspective3694"
       inkscape:persp3d-origin="0.5 : 0.33333333 : 1"
       inkscape:vp_z="1 : 0.5 : 1"
       inkscape:vp_y="0 : 1000 : 0"
       inkscape:vp_x="0 : 0.5 : 1"
       sodipodi:type="inkscape:persp3d" />
    <inkscape:perspective
       id="perspective3716"
       inkscape:persp3d-origin="0.5 : 0.33333333 : 1"
       inkscape:vp_z="1 : 0.5 : 1"
       inkscape:vp_y="0 : 1000 : 0"
       inkscape:vp_x="0 : 0.5 : 1"
       sodipodi:type="inkscape:persp3d" />
    <inkscape:perspective
       id="perspective3738"
       inkscape:persp3d-origin="0.5 : 0.33333333 : 1"
       inkscape:vp_z="1 : 0.5 : 1"
       inkscape:vp_y="0 : 1000 : 0"
       inkscape:vp_x="0 : 0.5 : 1"
       sodipodi:type="inkscape:persp3d" />
    <inkscape:perspective
       id="perspective3760"
       inkscape:persp3d-origin="0.5 : 0.33333333 : 1"
       inkscape:vp_z="1 : 0.5 : 1"
       inkscape:vp_y="0 : 1000 : 0"
       inkscape:vp_x="0 : 0.5 : 1"
       sodipodi:type="inkscape:persp3d" />
    <inkscape:perspective
       id="perspective3788"
       inkscape:persp3d-origin="0.5 : 0.33333333 : 1"
       inkscape:vp_z="1 : 0.5 : 1"
       inkscape:vp_y="0 : 1000 : 0"
       inkscape:vp_x="0 : 0.5 : 1"
       sodipodi:type="inkscape:persp3d" />
  </defs>
  <sodipodi:namedview
     id="base"
     pagecolor="#ffffff"
     bordercolor="#666666"
     borderopacity="1.0"
     inkscape:pageopacity="0.0"
     inkscape:pageshadow="2"
     inkscape:zoom="5.6568542"
     inkscape:cx="34.165331"
     inkscape:cy="24.048465"
     inkscape:current-layer="layer1"
     showgrid="true"
     inkscape:grid-bbox="true"
     inkscape:document-units="px"
     inkscape:snap-grids="true"
     inkscape:snap-to-guides="true"
     inkscape:window-width="1280"
     inkscape:window-height="725"
     inkscape:window-x="0"
     inkscape:window-y="24"
     inkscape:window-maximized="1">
    <inkscape:grid
       type="xygrid"
       id="grid4864"
       empspacing="5"
       visible="true"
       enabled="true"
       snapvisiblegridlinesonly="true" />
  </sodipodi:namedview>
  <metadata
     id="metadata4347">
    <rdf:RDF>
      <cc:Work
         rdf:about="">
        <dc:format>image/svg+xml</dc:format>
        <dc:type
           rdf:resource="http://purl.org/dc/dcmitype/StillImage" />
        <dc:title></dc:title>
      </cc:Work>
    </rdf:RDF>
  </metadata>
  <g
     id="layer1"
     inkscape:label="Layer 1"
     inkscape:groupmode="layer">
    <rect
       style="fill:#80ff80;fill-opacity:1"
       id="rect4862"
       width="50.089302"
       height="32.238468"
       x="0"
       y="0"
       rx="4.6611366"
       ry="3" />
    <path
       style="fill:none;stroke:#000000;stroke-width:1.40079582px;stroke-linecap:butt;stroke-linejoin:miter;stroke-opacity:1"
       d="m 24.290456,7.3018399 0,0"
       id="path4900"
       inkscape:path-effect="#path-effect4902"
       inkscape:original-d="m 24.290456,7.3018399 c 0,0 -0.226515,-17.7469259 0,0 z" />
    <path
       sodipodi:type="arc"
       style="fill:#00ccff"
       id="path4918"
       sodipodi:cx="23"
       sodipodi:cy="17"
       sodipodi:rx="5"
       sodipodi:ry="7"
       d="m 27.996954,17.244296 a 5,7 0 0 1 -0.0038,0.122056"
       sodipodi:start="0.034906585"
       sodipodi:end="0.052359878"
       sodipodi:open="true"
       transform="matrix(1.451697,0,0,1.3516792,-10.323758,-16.682757)" />
    <path
       sodipodi:type="arc"
       style="fill:#0b2228;fill-opacity:0"
       id="path4928"
       sodipodi:cx="25.5"
       sodipodi:cy="13"
       sodipodi:rx="5.5"
       sodipodi:ry="6"
       d="M 31,13 A 5.5,6 0 1 1 23.500975,7.4103391 L 25.5,13 z"
       sodipodi:start="0"
       sodipodi:end="4.3404107"
       transform="matrix(1.451697,0,0,1.3516792,-10.323758,-3.3904013)" />
    <path
       style="fill:#762228;fill-opacity:0;stroke-width:2.91899991;stroke-miterlimit:4;stroke-dasharray:none"
       d="M 6.5089297,15.605366 C 5.541866,15.262556 4.5417866,14.275119 4.0142729,13.142244 2.2656187,9.3868822 6.0967863,5.307153 9.7501158,7.0342672 c 1.6556662,0.782717 2.6255152,2.340856 2.6255152,4.2180968 0,3.18822 -2.9589878,5.383743 -5.8667013,4.353002 z"
       id="path3640" />
    <path
       style="fill:#762228;fill-opacity:0;stroke-width:2.91899991;stroke-miterlimit:4;stroke-dasharray:none"
       d="M 6.5089297,15.605366 C 5.541866,15.262556 4.5417866,14.275119 4.0142729,13.142244 2.2656187,9.3868822 6.0967863,5.307153 9.7501158,7.0342672 c 1.6556662,0.782717 2.6255152,2.340856 2.6255152,4.2180968 0,3.18822 -2.9589878,5.383743 -5.8667013,4.353002 z"
       id="path3642" />
    <path
       style="fill:#762228;fill-opacity:0;stroke-width:2.91899991;stroke-miterlimit:4;stroke-dasharray:none"
       d="M 6.5089297,15.605366 C 5.541866,15.262556 4.5417866,14.275119 4.0142729,13.142244 2.2656187,9.3868822 6.0967863,5.307153 9.7501158,7.0342672 c 1.6556662,0.782717 2.6255152,2.340856 2.6255152,4.2180968 0,3.18822 -2.9589878,5.383743 -5.8667013,4.353002 z"
       id="path3644" />
    <path
       style="fill:#762228;fill-opacity:0;stroke-width:2.91899991;stroke-miterlimit:4;stroke-dasharray:none"
       d="M 6.5089297,15.605366 C 5.541866,15.262556 4.5417866,14.275119 4.0142729,13.142244 2.2656187,9.3868822 6.0967863,5.307153 9.7501158,7.0342672 c 1.6556662,0.782717 2.6255152,2.340856 2.6255152,4.2180968 0,3.18822 -2.9589878,5.383743 -5.8667013,4.353002 z"
       id="path3646" />
    <path
       style="fill:#762228;fill-opacity:0;stroke-width:2.91899991;stroke-miterlimit:4;stroke-dasharray:none"
       d="M 6.5089297,15.605366 C 5.541866,15.262556 4.5417866,14.275119 4.0142729,13.142244 2.2656187,9.3868822 6.0967863,5.307153 9.7501158,7.0342672 c 1.6556662,0.782717 2.6255152,2.340856 2.6255152,4.2180968 0,3.18822 -2.9589878,5.383743 -5.8667013,4.353002 z"
       id="path3648" />
    <path
       style="fill:#000080;fill-opacity:0;stroke-width:2.91899991;stroke-miterlimit:4;stroke-dasharray:none"
       d="M 6.5089297,15.605366 C 5.541866,15.262556 4.5417866,14.275119 4.0142729,13.142244 2.2656187,9.3868822 6.0967863,5.307153 9.7501158,7.0342672 c 1.6556662,0.782717 2.6255152,2.340856 2.6255152,4.2180968 0,3.18822 -2.9589878,5.383743 -5.8667013,4.353002 z"
       id="path3650" />
    <path
       style="fill:#000080;fill-opacity:0;stroke-width:2.91899991;stroke-miterlimit:4;stroke-dasharray:none"
       d="M 6.5089297,15.605366 C 5.541866,15.262556 4.5417866,14.275119 4.0142729,13.142244 2.2656187,9.3868822 6.0967863,5.307153 9.7501158,7.0342672 c 1.6556662,0.782717 2.6255152,2.340856 2.6255152,4.2180968 0,3.18822 -2.9589878,5.383743 -5.8667013,4.353002 z"
       id="path3652" />
    <path
       style="fill:#000080;fill-opacity:0;stroke-width:2.91899991;stroke-miterlimit:4;stroke-dasharray:none"
       d="M 6.5089297,15.605366 C 5.541866,15.262556 4.5417866,14.275119 4.0142729,13.142244 2.2656187,9.3868822 6.0967863,5.307153 9.7501158,7.0342672 c 1.6556662,0.782717 2.6255152,2.340856 2.6255152,4.2180968 0,3.18822 -2.9589878,5.383743 -5.8667013,4.353002 z"
       id="path3654" />
    <path
       style="fill:#000080;fill-opacity:0;stroke-width:2.91899991;stroke-miterlimit:4;stroke-dasharray:none"
       d="M 6.5089297,15.605366 C 5.541866,15.262556 4.5417866,14.275119 4.0142729,13.142244 2.2656187,9.3868822 6.0967863,5.307153 9.7501158,7.0342672 c 1.6556662,0.782717 2.6255152,2.340856 2.6255152,4.2180968 0,3.18822 -2.9589878,5.383743 -5.8667013,4.353002 z"
       id="path3656" />
    <path
       style="fill:#000080;fill-opacity:0;stroke-width:2.91899991;stroke-miterlimit:4;stroke-dasharray:none"
       d="M 6.5089297,15.605366 C 5.541866,15.262556 4.5417866,14.275119 4.0142729,13.142244 2.2656187,9.3868822 6.0967863,5.307153 9.7501158,7.0342672 c 1.6556662,0.782717 2.6255152,2.340856 2.6255152,4.2180968 0,3.18822 -2.9589878,5.383743 -5.8667013,4.353002 z"
       id="path3658" />
    <path
       style="fill:#000080;fill-opacity:0;stroke-width:2.91899991;stroke-miterlimit:4;stroke-dasharray:none"
       d="m 50,22.537399 c -1.386191,-0.660956 -2.037351,-1.514139 -2.203571,-2.887232 -0.309955,-2.560457 2.682912,-4.833576 4.939359,-3.751503 2.343833,1.123981 3.256394,3.634679 1.960925,5.395035 -1.165692,1.584008 -2.97705,2.06366 -4.696713,1.2437 z"
       id="path3660" />
    <path
       style="fill:#000080;fill-opacity:0;stroke-width:2.91899991;stroke-miterlimit:4;stroke-dasharray:none"
       d="m 50,22.537399 c -1.386191,-0.660956 -2.037351,-1.514139 -2.203571,-2.887232 -0.309955,-2.560457 2.682912,-4.833576 4.939359,-3.751503 2.343833,1.123981 3.256394,3.634679 1.960925,5.395035 -1.165692,1.584008 -2.97705,2.06366 -4.696713,1.2437 z"
       id="path3662" />
    <path
       sodipodi:type="arc"
       style="fill:#762228;fill-opacity:0;stroke:#212121;stroke-width:2.63442432;stroke-miterlimit:4;stroke-opacity:1;stroke-dasharray:none"
       id="path5440-8"
       sodipodi:cx="24.617764"
       sodipodi:cy="20.265947"
       sodipodi:rx="7.3822374"
       sodipodi:ry="7.7340531"
       d="m 24.617764,28 a 7.3822374,7.7340531 0 1 1 0,-15.468106 l 0,7.734053 z"
       transform="matrix(-1.5731784,0,0,-1.0895244,67.600197,38.989893)"
       sodipodi:start="1.5707963"
       sodipodi:end="4.712389" />
    <g
       id="g3802"
       transform="matrix(1.451697,0,0,1.3516792,-7.4203635,-3.6819056)"
       style="fill:#5eff80;fill-opacity:0.90147783000000004;stroke:#000000;stroke-opacity:1">
      <path
         sodipodi:end="4.712389"
         sodipodi:start="1.5707963"
         transform="matrix(1.0836823,0,0,0.80605251,-6.677835,-1.1013648)"
         d="m 24.617764,28 c -4.077097,1e-6 -7.382238,-3.462653 -7.382238,-7.734052 0,-4.2714 3.30514,-7.734054 7.382237,-7.734054 0,0 1e-6,0 1e-6,0 l 0,7.734053 z"
         sodipodi:ry="7.7340531"
         sodipodi:rx="7.3822374"
         sodipodi:cy="20.265947"
         sodipodi:cx="24.617764"
         id="path5440"
         style="fill:#5eff80;fill-opacity:0.90147783000000004;stroke:#000000;stroke-width:2.55804208;stroke-miterlimit:4;stroke-opacity:1;stroke-dasharray:none"
         sodipodi:type="arc" />
      <path
         id="path3776"
         d="m 21,17 4,0 0,2 -4,0"
         style="fill:#5eff80;fill-opacity:0.90147783000000004;stroke:#000000;stroke-width:1px;stroke-linecap:butt;stroke-linejoin:miter;stroke-opacity:1" />
      <path
         id="path3776-1"
         d="m 21,12 4,0 0,2 -4,0"
         style="fill:#5eff80;fill-opacity:0.90147783000000004;stroke:#000000;stroke-width:1px;stroke-linecap:butt;stroke-linejoin:miter;stroke-opacity:1" />
    </g>
    <path
       style="fill:none;stroke:#000000;stroke-width:2.4;stroke-linecap:butt;stroke-linejoin:miter;stroke-opacity:1;stroke-miterlimit:4;stroke-dasharray:none"
       d="m 0,17 10,0 0,0"
       id="path3817" />
    <path
       style="fill:none;stroke:#212121;stroke-width:2.39999999999999991;stroke-linecap:butt;stroke-linejoin:miter;stroke-opacity:1;stroke-miterlimit:4;stroke-dasharray:none"
       d="M 41.542523,16.797204 50,17 l 0,0"
       id="path3821" />
  </g>
</svg>
